<svg id="visual" viewBox="0 0 900 600" width="900" height="600" xmlns="http://www.w3.org/2000/svg" xmlns:xlink="http://www.w3.org/1999/xlink" version="1.1"><rect x="0" y="0" width="900" height="450" fill="#002233"></rect><path d="M0 169L13.7 169.7C27.3 170.3 54.7 171.7 82 167.7C109.3 163.7 136.7 154.3 163.8 144.5C191 134.7 218 124.3 245.2 121.5C272.3 118.7 299.7 123.3 327 129.8C354.3 136.3 381.7 144.7 409 146C436.3 147.3 463.7 141.7 491 138.8C518.3 136 545.7 136 573 142.2C600.3 148.3 627.7 160.7 654.8 164C682 167.3 709 161.7 736.2 153.5C763.3 145.3 790.7 134.7 818 130.7C845.3 126.7 872.7 129.3 886.3 130.7L900 132L900 0L886.3 0C872.7 0 845.3 0 818 0C790.7 0 763.3 0 736.2 0C709 0 682 0 654.8 0C627.7 0 600.3 0 573 0C545.7 0 518.3 0 491 0C463.7 0 436.3 0 409 0C381.7 0 354.3 0 327 0C299.7 0 272.3 0 245.2 0C218 0 191 0 163.8 0C136.7 0 109.3 0 82 0C54.7 0 27.3 0 13.7 0L0 0Z" fill="#0066FF" stroke-linecap="round" stroke-linejoin="miter"></path></svg>